<?xml version="1.0" encoding="iso-8859-1"?>
<!-- Generator: Adobe Illustrator 19.0.0, SVG Export Plug-In . SVG Version: 6.00 Build 0)  -->
<svg version="1.1" id="Layer_1" xmlns="http://www.w3.org/2000/svg" xmlns:xlink="http://www.w3.org/1999/xlink" x="0px" y="0px"
	 viewBox="0 0 490 490" style="filter: invert(18%) sepia(50%) saturate(4151%) hue-rotate(351deg) brightness(103%) contrast(90%);" xml:space="preserve">
<g>
	<g>
		<g>
			<rect x="61.413" y="220" width="291" height="16"/>
			<path d="M205.633,104.537C265.99,104.537,315.096,154,315.096,214h15.305c0-67-55.969-124.768-124.767-124.768
				S80.866,147,80.866,214h15.305C96.171,154,145.276,104.537,205.633,104.537z"/>
			<rect x="122.413" y="193" width="137" height="14"/>
			<rect x="275.413" y="193" width="22" height="14"/>
			<path d="M352.062,0h-76.525c-42.197,0-76.524,34.328-76.525,76.525h15.305c0-33.756,27.464-61.22,61.22-61.22h76.525
				c33.756,0,61.22,27.464,61.22,61.22v413.234h15.305V76.525C428.587,34.328,394.259,0,352.062,0z"/>
			<rect x="77.413" y="306" width="15" height="184"/>
			<rect x="77.413" y="259" width="15" height="31"/>
			<rect x="138.413" y="459" width="16" height="31"/>
			<rect x="138.413" y="259" width="16" height="185"/>
			<rect x="199.413" y="383" width="16" height="107"/>
			<rect x="199.413" y="259" width="16" height="108"/>
			<rect x="259.413" y="330" width="16" height="160"/>
			<rect x="259.413" y="259" width="16" height="54"/>
			<rect x="320.413" y="435" width="16" height="55"/>
			<rect x="320.413" y="259" width="16" height="163"/>
		</g>
	</g>
</g>
<g>
</g>
<g>
</g>
<g>
</g>
<g>
</g>
<g>
</g>
<g>
</g>
<g>
</g>
<g>
</g>
<g>
</g>
<g>
</g>
<g>
</g>
<g>
</g>
<g>
</g>
<g>
</g>
<g>
</g>
</svg>
