<?xml version="1.0" encoding="UTF-8"?>
<svg viewBox="0 0 990 765" xmlns="http://www.w3.org/2000/svg">
 <path d="m627.86 166.43-154.29 145 13.571 385.71 270.71-43.571-19.286-417.14z" fill="#405340" stroke="#000"/>
 <g transform="matrix(.63834 -.10812 .05947 .99391 404.01 -403.8)">
  <path d="m173.75 597.31-0.50508 21.718 276.28 24.244-1.5152-22.223z" fill="#405340"/>
  <path d="m173.24 596.81 274.26 24.749-1.0102-8.0812-273.25-22.223z" fill="#0c1f0b" stroke="#000"/>
 </g>
 <g transform="matrix(.63834 -.10812 .05947 .99391 409.01 -375.23)">
  <path d="m173.75 597.31-0.50508 21.718 276.28 24.244-1.5152-22.223z" fill="#405340"/>
  <path d="m173.24 596.81 274.26 24.749-1.0102-8.0812-273.25-22.223z" fill="#0c1f0b" stroke="#000"/>
 </g>
 <path d="m150 315 11.429 351.43 300 24.286-12.857-380z" fill="#405340" stroke="#000"/>
 <path d="m657.14 138.57 8.5714-34.286 23.571 12.143 0.71429 18.571 40.714 29.286v8.5714l38.571 29.286 1.4286 12.143 35.714 26.429v27.143z" fill="#c2b2ac"/>
 <path d="m320.36 122.86 345.71 11.429 3.5714-35.714-118.21 2.8571-6.4286-18.571-13.214-13.929-81.786-2.5-61.786 8.5714-23.214 4.2857-21.071 13.214 1.7857 16.429z" fill="#c2b2ac"/>
 <g transform="matrix(1.0073 -.11394 .10831 .99333 242.23 -285.88)">
  <path d="m173.75 597.31-0.50508 21.718 276.28 24.244-1.5152-22.223z" fill="#405340"/>
  <path d="m173.24 596.81 274.26 24.749-1.0102-8.0812-273.25-22.223z" fill="#0c1f0b" stroke="#000"/>
 </g>
 <g transform="matrix(.91101 -.11394 .09796 .99333 288.26 -314.44)">
  <path d="m173.75 597.31-0.50508 21.718 276.28 24.244-1.5152-22.223z" fill="#405340"/>
  <path d="m173.24 596.81 274.26 24.749-1.0102-8.0812-273.25-22.223z" fill="#0c1f0b" stroke="#000"/>
 </g>
 <g transform="matrix(.63834 -.10812 .05947 .99391 404.04 -345.91)">
  <path d="m173.75 597.31-0.50508 21.718 276.28 24.244-1.5152-22.223z" fill="#405340"/>
  <path d="m173.24 596.81 274.26 24.749-1.0102-8.0812-273.25-22.223z" fill="#0c1f0b" stroke="#000"/>
 </g>
 <path d="m664.68 131.32-197.99 178.21-416.18 4.9502 207.08-197.02z" fill="#c2b2ac"/>
 <path d="m592.14 221.43 5 87.143h57.143l-2.8571-89.286z" stroke="#000"/>
 <g transform="matrix(.91682 -.16003 .14891 .98711 240.7 -78.483)">
  <path d="m173.75 597.31-0.50508 21.718 276.28 24.244-1.5152-22.223z" fill="#405340"/>
  <path d="m173.24 596.81 274.26 24.749-1.0102-8.0812-273.25-22.223z" fill="#0c1f0b" stroke="#000"/>
 </g>
 <g transform="matrix(.91682 -.16003 .14891 .98711 242.13 -105.63)">
  <path d="m173.75 597.31-0.50508 21.718 276.28 24.244-1.5152-22.223z" fill="#405340"/>
  <path d="m173.24 596.81 274.26 24.749-1.0102-8.0812-273.25-22.223z" fill="#0c1f0b" stroke="#000"/>
 </g>
 <g transform="matrix(.91682 -.16003 .14891 .98711 231.41 -132.77)">
  <path d="m173.75 597.31-0.50508 21.718 276.28 24.244-1.5152-22.223z" fill="#405340"/>
  <path d="m173.24 596.81 274.26 24.749-1.0102-8.0812-273.25-22.223z" fill="#0c1f0b" stroke="#000"/>
 </g>
 <g transform="matrix(.91682 -.16003 .14891 .98711 239.27 -161.34)">
  <path d="m173.75 597.31-0.50508 21.718 276.28 24.244-1.5152-22.223z" fill="#405340"/>
  <path d="m173.24 596.81 274.26 24.749-1.0102-8.0812-273.25-22.223z" fill="#0c1f0b" stroke="#000"/>
 </g>
 <path d="m518.57 379.29c4.2857 147.14 3.5714 147.14 3.5714 147.14l60.714-6.4286-4.2857-147.86z" stroke="#000"/>
 <g transform="matrix(.99985 -.01753 .01753 .99985 -13.799 -106.08)">
  <path d="m173.75 597.31-0.50508 21.718 276.28 24.244-1.5152-22.223z" fill="#405340"/>
  <path d="m173.24 596.81 274.26 24.749-1.0102-8.0812-273.25-22.223z" fill="#0c1f0b" stroke="#000"/>
 </g>
 <g transform="matrix(.99969 -.02481 .02481 .99969 -27.336 -132.5)">
  <path d="m173.75 597.31-0.50508 21.718 276.28 24.244-1.5152-22.223z" fill="#405340"/>
  <path d="m173.24 596.81 274.26 24.749-1.0102-8.0812-273.25-22.223z" fill="#0c1f0b" stroke="#000"/>
 </g>
 <g transform="matrix(.99933 -.03655 .03655 .99933 -34.976 -157.42)">
  <path d="m173.75 597.31-0.50508 21.718 276.28 24.244-1.5152-22.223z" fill="#405340"/>
  <path d="m173.24 596.81 274.26 24.749-1.0102-8.0812-273.25-22.223z" fill="#0c1f0b" stroke="#000"/>
 </g>
 <g transform="matrix(.99891 -.04673 .04673 .99891 -40.618 -182.27)">
  <path d="m173.75 597.31-0.50508 21.718 276.28 24.244-1.5152-22.223z" fill="#405340"/>
  <path d="m173.24 596.81 274.26 24.749-1.0102-8.0812-273.25-22.223z" fill="#0c1f0b" stroke="#000"/>
 </g>
 <g transform="matrix(.9984 -.05652 .05652 .9984 -39.937 -207.2)">
  <path d="m173.75 597.31-0.50508 21.718 276.28 24.244-1.5152-22.223z" fill="#405340"/>
  <path d="m173.24 596.81 274.26 24.749-1.0102-8.0812-273.25-22.223z" fill="#0c1f0b" stroke="#000"/>
 </g>
 <g transform="matrix(.99795 -.06399 .06399 .99795 -43.392 -262.18)" fill="#243523">
  <path d="m173.75 597.31-0.50508 21.718 276.28 24.244-1.5152-22.223z"/>
  <path d="m173.24 596.81 274.26 24.749-1.0102-8.0812-273.25-22.223z" stroke="#000"/>
 </g>
 <g transform="matrix(.99825 -.05916 .05916 .99825 -36.972 -234.57)" fill="#243523">
  <path d="m173.75 597.31-0.50508 21.718 276.28 24.244-1.5152-22.223z"/>
  <path d="m173.24 596.81 274.26 24.749-1.0102-8.0812-273.25-22.223z" stroke="#000"/>
 </g>
 <path d="m244.29 363.57h109.29v177.86h-109.29z"/>
 <path d="m631.43 235 0.71429 54.286 11.429-1.4286-1.4286-53.571z" fill="#7c1a0f" stroke="#000"/>
 <path d="m274.29 387.86 2.1429 127.86-15.714-1.4286-2.1429-127.86z" fill="#692d21" stroke="#000"/>
 <g transform="matrix(.91682 -.16003 .14891 .98711 249.99 90.802)">
  <path d="m173.75 597.31-0.50508 21.718 276.28 24.244-1.5152-22.223z" fill="#405340"/>
  <path d="m173.24 596.81 274.26 24.749-1.0102-8.0812-273.25-22.223z" fill="#0c1f0b" stroke="#000"/>
 </g>
 <g transform="matrix(.91682 -.16003 .14891 .98711 245.7 61.517)">
  <path d="m173.75 597.31-0.50508 21.718 276.28 24.244-1.5152-22.223z" fill="#405340"/>
  <path d="m173.24 596.81 274.26 24.749-1.0102-8.0812-273.25-22.223z" fill="#0c1f0b" stroke="#000"/>
 </g>
 <g transform="matrix(.91682 -.16003 .14891 .98711 244.27 32.945)">
  <path d="m173.75 597.31-0.50508 21.718 276.28 24.244-1.5152-22.223z" fill="#405340"/>
  <path d="m173.24 596.81 274.26 24.749-1.0102-8.0812-273.25-22.223z" fill="#0c1f0b" stroke="#000"/>
 </g>
 <g transform="matrix(.91682 -.16003 .14891 .98711 244.27 5.0881)">
  <path d="m173.75 597.31-0.50508 21.718 276.28 24.244-1.5152-22.223z" fill="#405340"/>
  <path d="m173.24 596.81 274.26 24.749-1.0102-8.0812-273.25-22.223z" fill="#0c1f0b" stroke="#000"/>
 </g>
 <g transform="matrix(.91682 -.16003 .14891 .98711 249.99 -24.912)">
  <path d="m173.75 597.31-0.50508 21.718 276.28 24.244-1.5152-22.223z" fill="#405340"/>
  <path d="m173.24 596.81 274.26 24.749-1.0102-8.0812-273.25-22.223z" fill="#0c1f0b" stroke="#000"/>
 </g>
 <g transform="matrix(.91682 -.16003 .14891 .98711 240.7 -51.34)">
  <path d="m173.75 597.31-0.50508 21.718 276.28 24.244-1.5152-22.223z" fill="#405340"/>
  <path d="m173.24 596.81 274.26 24.749-1.0102-8.0812-273.25-22.223z" fill="#0c1f0b" stroke="#000"/>
 </g>
 <g transform="matrix(.91682 -.16003 .14891 .98711 231.41 -188.48)">
  <path d="m173.75 597.31-0.50508 21.718 276.28 24.244-1.5152-22.223z" fill="#405340"/>
  <path d="m173.24 596.81 274.26 24.749-1.0102-8.0812-273.25-22.223z" fill="#0c1f0b" stroke="#000"/>
 </g>
 <path d="m629.29 392.14 2.1429 280.71 76.429-11.429-2.1428-278.57z" fill="#1a1a1a" stroke="#000"/>
 <path d="m658.57 553.57 11.429 0.71428 2.1429 115-12.857-2.1429z" fill="#a36c1c" stroke="#000"/>
 <path d="m667.86 390.71 45-2.1429v132.86l-0.71429 30.714 2.1429 102.14-21.429-0.71429-0.71428-113.57-1e-5 -17.857-1.4286-95z" fill="#aa712c" stroke="#000"/>
 <g transform="translate(-1.5178 -84.35)">
  <path d="m173.75 597.31-0.50508 21.718 276.28 24.244-1.5152-22.223z" fill="#405340"/>
  <path d="m173.24 596.81 274.26 24.749-1.0102-8.0812-273.25-22.223z" fill="#0c1f0b" stroke="#000"/>
 </g>
 <g transform="translate(-.50761,-56.066)">
  <path d="m173.75 597.31-0.50508 21.718 276.28 24.244-1.5152-22.223z" fill="#405340"/>
  <path d="m173.24 596.81 274.26 24.749-1.0102-8.0812-273.25-22.223z" fill="#0c1f0b" stroke="#000"/>
 </g>
 <g transform="translate(-.50761 -27.782)">
  <path d="m173.75 597.31-0.50508 21.718 276.28 24.244-1.5152-22.223z" fill="#405340"/>
  <path d="m173.24 596.81 274.26 24.749-1.0102-8.0812-273.25-22.223z" fill="#0c1f0b" stroke="#000"/>
 </g>
 <path d="m173.75 597.31-0.50508 21.718 276.28 24.244-1.5152-22.223z" fill="#405340"/>
 <path d="m173.24 596.81 274.26 24.749-1.0102-8.0812-273.25-22.223z" fill="#0c1f0b" stroke="#000"/>
 <g transform="translate(-2.5279 28.787)">
  <path d="m173.75 597.31-0.50508 21.718 276.28 24.244-1.5152-22.223z" fill="#405340"/>
  <path d="m173.24 596.81 274.26 24.749-1.0102-8.0812-273.25-22.223z" fill="#0c1f0b" stroke="#000"/>
 </g>
 <g transform="translate(.50254 57.576)">
  <path d="m173.75 597.31-0.50508 21.718 276.28 24.244-1.5152-22.223z" fill="#405340"/>
  <path d="m173.24 596.81 274.26 24.749-1.0102-8.0812-273.25-22.223z" fill="#0c1f0b" stroke="#000"/>
 </g>
 <path d="m427.14 325.71 11.429 376.43 37.857 2.8571-9.2857-380.71z" fill="#d1ccc6" stroke="#000"/>
 <path d="m212.64 182.14-46.972 26.769 81.317-2.0203 34.345-28.284z" fill="#e7caba"/>
 <g transform="matrix(.92368 -.11394 .09932 .99333 268.46 -258.02)">
  <path d="m173.75 597.31-0.50508 21.718 276.28 24.244-1.5152-22.223z" fill="#405340"/>
  <path d="m173.24 596.81 274.26 24.749-1.0102-8.0812-273.25-22.223z" fill="#0c1f0b" stroke="#000"/>
 </g>
 <path d="m664.68 122.54-196.98 178.8-420.22 8.0812 12.122 17.173 419.21-1.0102 186.88-173.75 171.73 163.64 8.0812-22.223z" fill="#c8c7c2" stroke="#000"/>
 <path d="m635.39 180.12 126.27 117.18-1.0102 18.183 76.772 1.0102-172.74-165.67z" fill="#c3b9b7" stroke="#000"/>
 <path d="m136.37 327.6 8.0812 344.46 32.325 4.0406-5.0508-348.5z" fill="#cdc8c4" stroke="#000"/>
 <path d="m171.43 326.43 7.8571 0.71429 4.2857 348.57h-7.1429z" fill="#8e8784" stroke="#000"/>
 <g transform="matrix(.91682 -.16003 .14891 .98711 247.89 119.3)">
  <path d="m173.75 597.31-0.50508 21.718 276.75 6.9534-1.9863-4.933z" fill="#405340"/>
  <path d="m173.24 596.81 274.26 24.749-1.0102-8.0812-273.25-22.223z" fill="#0c1f0b" stroke="#000"/>
 </g>
 <g transform="matrix(.92368 -.11394 .09932 .99333 266.98 -229.52)">
  <path d="m173.75 597.31-0.50508 21.718 276.28 24.244-1.5152-22.223z" fill="#405340"/>
  <path d="m173.24 596.81 274.26 24.749-1.0102-8.0812-273.25-22.223z" fill="#0c1f0b" stroke="#000"/>
 </g>
 <path d="m497.14 308.57-17.857 16.429-12.857 1.4286 10 377.86 27.143-2.8571z" fill="#d4ceca" stroke="#000"/>
 <path d="m759.29 295.71-27.143 1.4286 6.4286 371.43 26.429-2.1429z" fill="#c9bbb8" stroke="#000"/>
 <path d="m731.43 297.14-6.4286 0.71428 6.4286 372.86h7.8572z" fill="#aba49c" stroke="#000"/>
 <path d="m725 350.71 0.71429 23.571-121.43 5-0.71428-24.286z" fill="#cec5be" stroke="#000"/>
 <path d="m603.57 355.71-8.5714-0.71429-0.71429 22.857h10z" fill="#9c988d" stroke="#000"/>
 <path d="m593.57 377.86 5 313.57 8.5714 0.71429-2.8572-314.29z" fill="#acaca4" stroke="#000"/>
 <path d="m604.29 379.29 16.429-0.71428 3.5714 309.29-17.143 1.4286z" fill="#d3cbc9" stroke="#000"/>
 <path d="m713.57 375 12.857-0.71429 5.7143 296.43-15 2.8571z" fill="#d3cbc5" stroke="#000"/>
 <path d="m610.72 202.16-27.156 25 2.875 94.281 75-1.4375-2.1562-117.16-48.562-0.6875zm-11.438 22.844 46.438 1.4375 0.71875 71.406-45-1.4062-2.1562-71.438z" fill="#bcb4b1" stroke="#000"/>
 <path d="m582.86 227.86-7.1428 7.8572 2.8571 85.714h8.5714z" fill="#938c82" stroke="#000"/>
 <path d="m589.28 357.16-80 2.8438 4.2812 185 79.281-10-3.5625-177.84zm-16.438 24.281 5 131.41-48.562 5.7188-2.125-135.72 45.688-1.4062z" fill="#daced2" stroke="#000"/>
 <path d="m509.29 360h-6.4286l1.4286 181.43 9.2857 3.5714z" fill="#96968c" stroke="#000"/>
 <path d="m237.16 352.84 2.125 191.44 119.28 5-1.4062-195.72-120-0.71875zm17.844 22.156 83.562 1.4375 3.5938 149.28-86.438-2.1562-0.71875-148.56z" fill="#cec6c3" stroke="#000"/>
 <path d="m356.43 354.29 5.7143 0.71429 5.7143 194.29h-10z" fill="#adb1a3" stroke="#000"/>
 <path d="m381.43 250.71-47.857 42.143 130-3.5714 47.857-40z" fill="#f3d7c2"/>
 <path d="m379.29 252.14-92.857 3.5714-41.429 37.857 90.714-1.4286z" fill="#e1c2ad"/>
 <path d="m335.71 293.57 0.71428 10 128.57-2.8571v-11.429z" fill="#7e6756"/>
 <path d="m533.57 229.29-69.286 60.714 2.1429 11.429 71.429-66.429z" fill="#7c644a"/>
 <path d="m245 293.57 2.8571 11.429 87.857-2.1429v-10z" fill="#a0846f"/>
 <path d="m255 377.16 1.4375 146.41 85 1.4375-2.875-147.84zm11.438 15.688h60l0.71875 52.156-62.156-0.71875zm61.406 66.438 0.71875 49.281-62.125 0.72321-4e-3 -49.281z" fill="#903715" stroke="#000"/>
 <path d="m202.86 257.86h82.143l-40.714 38.571h-84.286z" fill="#d5baa9"/>
 <path d="m161.43 296.43 2.8571 10.714 82.857-2.1429-1.4286-10z" fill="#a8876f"/>
 <path d="m165 258.57 36.429-0.71429-40 38.571-41.429 0.71429z" fill="#ceaa92"/>
 <path d="m120.71 297.14 2.1428 10 41.429-0.71429-2.8571-10z" fill="#997157"/>
 <path d="m162.14 259.29-71.429-0.71428-47.857 38.571h76.429z" fill="#efd1b9"/>
 <path d="m43.571 295.71 3.5714 13.571 75.714-1.4286-3.5714-10.714z" fill="#cab19e"/>
 <path d="m556.43 389.29 5 118.57 12.143-3.5714-5-115.71z" fill="#7c1a0f" stroke="#000"/>
 <path d="m572.84 380.72-46.406 2.125 2.8438 135 47.875-6.4062-4.3125-130.72zm-36.406 15.719h29.281l0.71875 39.281-29.281 4.2812-0.71875-43.562zm30.719 55.719 0.6875 44.281-27.844 5-1.4375-45 28.594-4.2812z" fill="#a03c25" stroke="#000"/>
 <path d="m599.28 225 2.1562 72.156h45.719l-2.1562-72.156h-45.719zm37.875 14.281-1.4375 15.719h-25l-1.4375-15 27.875-0.71875zm-27.875 25.719 27.156 0.71875 1.4062 16.438-28.562-0.71875v-16.438z" fill="#90311a" stroke="#000"/>
 <path d="m714.28 373.56-93.562 5.7188 3.5625 308.56 92.156-15-2.1562-299.28zm-33.562 24.281 20 29.312-0.71875 92.125-61.438 3.5625-1.4062-96.406 17.125-27.156 26.438-1.4375zm20 130.72v18.594l-62.875 3.5625v-17.875l62.875-4.2812zm0 28.594 0.71875 95-27.156 2.8438-1.4375-97.156 27.875-0.6875zm-33.562 0.6875 1.4062 97.156-30 3.5625v-98.562l28.594-2.1562z" fill="#c9944e" stroke="#000"/>
 <path d="m775.51 329.87-15.505 28.701-26.429-0.71429 13.571-29.286z" fill="#a74f34" stroke="#000"/>
 <path d="m733.62 358.41-0.25254 3.7881 27.274 1.0102-0.50508-4.7982z" fill="#a84c2e" stroke="#000"/>
 <path d="m747.51 328.61-0.50507-2.5254 30.557 1.2627v2.5254z" fill="#a04a2f" stroke="#000"/>
 <path d="m777.82 327.6 17.173 28.537-0.25253 2.7779-17.425-26.769z" fill="#a94e35" stroke="#000"/>
 <path d="m777.56 330.63-0.75761 11.112-16.162 22.728 0.25253-4.0406z" fill="#a75137" stroke="#000"/>
 <path d="m775.29 330.13 2.0203 1.5152-16.668 28.537-0.75762-2.0203z" fill="#a74f34" stroke="#000"/>
 <path d="m777.82 333.41 16.92 25.506-1.7678 2.5254-16.162-19.698z" fill="#a74f34" stroke="#000"/>
 <path d="m739.43 362.71 0.50508 44.194 23.486-0.25254-1.2627-43.689z" fill="#c49861" stroke="#000"/>
 <path d="m779.59 355.38-0.25254 50.255-16.162 0.75762-0.75762-39.901 13.385-17.425z" fill="#bd8f42" stroke="#000"/>
 <path d="m762.16 366.49 0.25253-4.2932 14.647-19.193 16.162 19.193-13.89 0.50508 0.50508-7.3236-4.2932-6.3134z" fill="#825d31" stroke="#000"/>
 <path d="m775.8 371.55c0 1.8132-1.9786 3.283-4.4194 3.283s-4.4194-1.4698-4.4194-3.283 1.9786-3.283 4.4194-3.283 4.4194 1.4698 4.4194 3.283z"/>
 <path d="m772.26 377.35 10.859 0.25254-0.25254 2.2728-10.607-0.25254z" fill="#784421" stroke="#000"/>
 <path d="m460.63 209.42-47.477 29.294 92.934-2.0203 47.477-30.305z" fill="#d5b092"/>
 <path d="m418.2 211.44h40.406l-46.467 28.284h-40.406z" fill="#e2c7b6"/>
 <path d="m333.35 216.49 82.833-4.0406-43.437 29.294-88.893 3.0305z" fill="#c9a493"/>
 <path d="m280.82 217.5h50.508l-48.487 28.284-47.477 3.0305z" fill="#cfb39e"/>
 <path d="m207.08 218.51 72.731-2.0203-42.426 33.335-74.751-2.0203z" fill="#e8d5c4"/>
 <path d="m205.06 219.52h-74.751l-44.447 27.274 77.782 1.0102z" fill="#e0bda9"/>
 <path d="m84.853 246.79 3.0305 11.112h77.782l-2.0203-11.112z" fill="#7d452c"/>
 <path d="m164.65 247.8-1.0102 10.102 75.761-2.0203v-7.0711z" fill="#96644b"/>
 <path d="m239.41 247.8-1.0102 9.0914 47.477-2.0203-1.0102-9.0914z" fill="#5a2410"/>
 <path d="m285.37 245.28 1.0102 10.102 87.378-4.5457-0.50507-9.5964z" fill="#a4724f"/>
 <path d="m375.78 240.23v10.102l37.376-1.0102-1.0102-10.102z" fill="#81513d"/>
 <path d="m413.15 238.21v11.112l93.944-2.0203-0.50508-10.607z" fill="#7b4322"/>
 <path d="m574.78 193.76-68.185 42.426 0.50508 11.617 71.216-50.003z" fill="#c9a281"/>
 <path d="m526.79 101.33-100.51 81.822 2.5254 12.122 99.5-64.65z" fill="#e1cec0"/>
 <path d="m543.97 169.01-34.345 29.294 40.406-2.0203 45.962-28.789z" fill="#dabaa5"/>
 <path d="m540.94 171.54-78.287 0.50508-44.447 28.284 92.429-2.5254z" fill="#f7d4b8"/>
 <path d="m511.14 199.31-1.5152 8.0812 43.437-1.0102-2.5254-10.102z" fill="#986a48"/>
 <path d="m419.72 200.32v10.102l89.904-2.0203 0.50508-10.102z" fill="#aa7450"/>
 <path d="m621.24 152.34-70.711 43.942 2.0203 9.0914 70.711-45.962z" fill="#d9beac"/>
 <path d="m261.63 187.7 164.65-5.0508 1.0102 10.607-166.17 3.0305z" fill="#a49389"/>
 <path d="m510.13 134.66-45.457 27.274 39.901 0.50508 48.487-28.789z" fill="#e1c4ad"/>
 <path d="m466.19 161.43-0.50508 10.102 39.396-0.50508v-9.0914z" fill="#be8a62"/>
 <path d="m553.56 134.16 39.396-1.0102-51.013 27.779-36.365 0.50507z" fill="#dbac8e"/>
 <path d="m505.08 161.94v8.5863h37.376v-10.102z" fill="#976133"/>
 <path d="m593.97 132.64-52.023 27.779 51.518-3.0305 51.518-28.789z" fill="#d7b89c"/>
 <path d="m542.45 159.92-0.50508 9.0914 53.538-1.5152-1.5152-10.102z" fill="#b28566"/>
 <path d="m661.65 118.5-67.68 39.396 2.0203 8.5863 68.185-42.931z" fill="#a07555"/>
 <path d="m344.46 195.27-11.617 10.102 84.348-3.5355 11.112-9.0914z" fill="#cda184"/>
 <path d="m331.84 206.39v9.5964l87.378-5.5558-0.50508-9.0914z" fill="#7e4527"/>
 <path d="m261.12 195.78-13.132 10.607 83.843-0.50507 12.627-11.112z" fill="#caa68c"/>
 <path d="m248.5 207.9v8.5863h83.338v-10.607z" fill="#69351d"/>
 <path d="m166.17 209.92v9.0914l82.327-1.5152v-11.112z" fill="#8f5736"/>
 <path d="m211.63 182.14-35.86 1.0102-46.972 27.274 35.86-0.50507z" fill="#e5c4b5"/>
 <path d="m129.3 210.93 0.50507 8.5863 35.86-0.50508v-9.0914z" fill="#8f5736"/>
 <path d="m251.53 172.55 0.50508 7.5762 10.102-0.50508 2.0203-9.0914z" fill="#86563c"/>
 <path d="m299.01 147.8-42.931 28.789 81.317 1.5152 41.416-30.81z" fill="#eed5bc"/>
 <path d="m256.58 177.09 0.50507 9.5964 82.327 1.0102-2.5254-11.617z" fill="#956c51"/>
 <path d="m379.31 146.79 84.853-4.5457-40.911 31.315-86.873 3.5355z" fill="#d7b99f"/>
 <path d="m337.39 177.09 1.5152 9.0914 86.368-3.5355v-9.5964z" fill="#81513a"/>
 <path d="m496.49 120.02-72.731 53.538 2.0203 8.0812 71.721-57.579z" fill="#be9e84"/>
 <path d="m295.47 144.77-44.447 26.264 11.617-1.0102 35.86-22.728z" fill="#ffecd6"/>
 <path d="m293.95 141.74-69.195 3.0305-51.518 28.284 77.782-2.0203 48.487-29.294z" fill="#e5c2af"/>
 <path d="m172.74 173.56 2.0203 9.0914 76.267-2.5254-1.5152-9.0914z" fill="#8b5435"/>
 <path d="m223.75 132.14v12.627l77.782-3.0305 1.5152-11.617z" fill="#b99875"/>
 <path d="m344.46 106.89-51.013 28.789h47.477l44.447-27.779z" fill="#e5c0ae"/>
 <path d="m292.94 137.19v10.102l50.508-1.5152-2.0203-10.102z" fill="#7c4024"/>
 <path d="m381.33 110.93-39.396 25.759 67.175-2.0203 42.426-25.254z" fill="#d9bca2"/>
 <path d="m341.43 137.7 0.50508 8.5863 68.185-2.0203-1.0102-9.5964z" fill="#996f47"/>
 <path d="m456.08 103.86-45.962 30.81 51.518-3.5355 47.982-27.779z" fill="#d3a78a"/>
 <path d="m409.62 135.67 1.0102 9.0914 52.528-3.5355-0.50507-10.102z" fill="#b18062"/>
 <path d="m528.81 90.723-67.68 40.406 2.5254 10.607 67.175-44.952z" fill="#c49869"/>
 <path d="m510.13 118-0.50508 16.668 135.87-6.0609-0.50508-16.162z" fill="#ae804f"/>
 <path d="m532.86 68.5 23.234 19.698 0.50507 12.122-8.5863-0.50508-15.657-13.637z" fill="#c19f86"/>
 <path d="m531.34 98.299-22.728 18.688 136.88-4.5457 22.223-18.688z" fill="#f5dfc4"/>
 <path d="m667.21 94.259-0.50508 18.688-20.708 14.647-0.50507-15.152z" fill="#a69384"/>
 <path d="m335.88 111.43-31.315 18.183-81.317 2.5254 24.244-18.183z" fill="#f2dec6"/>
 <path d="m384.87 21.023v89.398l66.165-1.5152-1.0102-91.419z" fill="#bb8235"/>
 <path d="m504.07 20.012-54.548-2.0203 1.0102 90.914 6.566-7.0711v-15.152l22.728-19.698 25.759 1.0102z" fill="#cb9041"/>
 <path d="m480.33 67.995-22.728 18.688 53.033-0.50508 22.728-18.183z" fill="#f7ddbc"/>
 <path d="m457.09 87.188-1.0102 16.162 54.043-1.0102 0.50507-16.162z" fill="#b2875d"/>
 <path d="m532.35 67.995-0.50508 18.688-22.728 15.152 0.50508-15.657z" fill="#c6a88c"/>
 <path d="m384.87 75.066h-17.678l-24.244 17.678 41.416-0.50508z" fill="#f7e1ca"/>
 <path d="m343.45 93.754v13.637h41.416v-14.647z" fill="#b18965"/>
 <path d="m667.21 94.259 22.223 16.668v17.173l-22.223-15.152z" fill="#d4c1ba"/>
 <path d="m734.89 160.42-3.0305 10.102-65.66-48.487 2.5254-5.0508z" fill="#987b69"/>
 <path d="m772.26 196.79-2.0203 11.617-66.67-52.528 1.0102-3.0305z" fill="#9d7961"/>
 <path d="m812.16 238.21-5.0508 10.607-61.114-50.508 1.5152-5.0508z" fill="#b8a294"/>
 <path d="m848.53 281.14-3.0305 11.617-58.084-54.043 2.0203-2.5254z" fill="#ba9a83"/>
</svg>
